<svg xmlns="http://www.w3.org/2000/svg" viewBox="0 0 480 380" width="480" height="380">
  <!-- Fondo -->
  <rect width="480" height="380" fill="#f0fdf4" rx="12"/>

  <!-- Tierra -->
  <rect x="0" y="256" width="480" height="124" fill="#d4a76a" rx="0"/>
  <rect x="0" y="256" width="480" height="9" fill="#b8864e"/>
  <!-- Textura tierra -->
  <circle cx="60"  cy="278" r="4" fill="#b8864e" opacity="0.45"/>
  <circle cx="120" cy="293" r="3" fill="#b8864e" opacity="0.45"/>
  <circle cx="185" cy="272" r="4" fill="#b8864e" opacity="0.45"/>
  <circle cx="310" cy="288" r="3" fill="#b8864e" opacity="0.45"/>
  <circle cx="380" cy="276" r="4" fill="#b8864e" opacity="0.45"/>
  <circle cx="425" cy="300" r="3" fill="#b8864e" opacity="0.45"/>

  <!-- Raices -->
  <path d="M236 258 Q208 274 193 298" stroke="#8B5E3C" stroke-width="5" fill="none" stroke-linecap="round"/>
  <path d="M241 258 Q241 284 241 310" stroke="#8B5E3C" stroke-width="5" fill="none" stroke-linecap="round"/>
  <path d="M246 258 Q272 274 285 298" stroke="#8B5E3C" stroke-width="5" fill="none" stroke-linecap="round"/>
  <path d="M193 298 Q178 312 174 330" stroke="#8B5E3C" stroke-width="3.5" fill="none" stroke-linecap="round"/>
  <path d="M193 298 Q192 318 188 336" stroke="#8B5E3C" stroke-width="3"   fill="none" stroke-linecap="round"/>
  <path d="M285 298 Q300 312 304 330" stroke="#8B5E3C" stroke-width="3.5" fill="none" stroke-linecap="round"/>
  <path d="M285 298 Q285 318 289 336" stroke="#8B5E3C" stroke-width="3"   fill="none" stroke-linecap="round"/>
  <path d="M241 310 Q229 324 227 342" stroke="#8B5E3C" stroke-width="3"   fill="none" stroke-linecap="round"/>
  <path d="M241 310 Q253 324 255 342" stroke="#8B5E3C" stroke-width="3"   fill="none" stroke-linecap="round"/>

  <!-- Tallo principal -->
  <path d="M234 258 Q229 210 231 160 Q233 110 239 60" stroke="#4a7c2f" stroke-width="13" fill="none" stroke-linecap="round"/>
  <!-- Brillo del tallo -->
  <path d="M237 258 Q232 210 234 160 Q236 110 242 60" stroke="#7ec850" stroke-width="4" fill="none" stroke-linecap="round" opacity="0.45"/>

  <!-- Hoja izquierda -->
  <ellipse cx="183" cy="186" rx="58" ry="23" fill="#5a9e2f" transform="rotate(-35 183 186)" stroke="#4a7c2f" stroke-width="1.5"/>
  <path d="M218 169 Q192 183 158 198" stroke="#3d7020" stroke-width="1.5" fill="none" opacity="0.55"/>
  <line x1="219" y1="169" x2="232" y2="186" stroke="#4a7c2f" stroke-width="3.5"/>

  <!-- Hoja derecha -->
  <ellipse cx="297" cy="154" rx="58" ry="23" fill="#6db33f" transform="rotate(35 297 154)" stroke="#4a7c2f" stroke-width="1.5"/>
  <path d="M263 141 Q285 154 327 167" stroke="#3d7020" stroke-width="1.5" fill="none" opacity="0.55"/>
  <line x1="263" y1="141" x2="237" y2="154" stroke="#4a7c2f" stroke-width="3.5"/>

  <!-- Pétalos de la flor -->
  <ellipse cx="240" cy="27"  rx="15" ry="21" fill="#FF7043"/>
  <ellipse cx="240" cy="27"  rx="15" ry="21" fill="#FF7043" transform="rotate(60  240 47)"/>
  <ellipse cx="240" cy="27"  rx="15" ry="21" fill="#FF7043" transform="rotate(-60 240 47)"/>
  <ellipse cx="240" cy="67"  rx="15" ry="21" fill="#FF8A65"/>
  <ellipse cx="240" cy="67"  rx="15" ry="21" fill="#FF8A65" transform="rotate(60  240 47)"/>
  <ellipse cx="240" cy="67"  rx="15" ry="21" fill="#FF8A65" transform="rotate(-60 240 47)"/>
  <!-- Centro flor -->
  <circle cx="240" cy="47" r="20" fill="#FFD54F" stroke="#F9A825" stroke-width="2"/>
  <circle cx="240" cy="47" r="10" fill="#F9A825"/>
  <circle cx="236" cy="43" r="2" fill="#FF6F00"/>
  <circle cx="244" cy="43" r="2" fill="#FF6F00"/>
  <circle cx="240" cy="50" r="2" fill="#FF6F00"/>

  <!-- Fruto (manzana) -->
  <circle cx="194" cy="127" r="22" fill="#E53935" stroke="#C62828" stroke-width="1.5"/>
  <ellipse cx="187" cy="119" rx="7" ry="5" fill="white" opacity="0.35" transform="rotate(-20 187 119)"/>
  <path d="M194 105 Q199 99 205 102" stroke="#4a7c2f" stroke-width="2.5" fill="none" stroke-linecap="round"/>
  <line x1="209" y1="105" x2="233" y2="134" stroke="#4a7c2f" stroke-width="2.5" opacity="0.65"/>

  <!-- ── ETIQUETAS ── -->

  <!-- Flor -->
  <line x1="257" y1="36"  x2="320" y2="20"  stroke="#555" stroke-width="1.5" stroke-dasharray="5,3"/>
  <rect x="320" y="8"   width="58" height="26" fill="white" rx="6" stroke="#ddd" stroke-width="1"/>
  <text x="349" y="26" font-family="Arial, sans-serif" font-size="14" font-weight="700" fill="#14532d" text-anchor="middle">Flor</text>

  <!-- Fruto -->
  <line x1="172" y1="127" x2="108" y2="116" stroke="#555" stroke-width="1.5" stroke-dasharray="5,3"/>
  <rect x="46"  y="104" width="62" height="26" fill="white" rx="6" stroke="#ddd" stroke-width="1"/>
  <text x="77"  y="122" font-family="Arial, sans-serif" font-size="14" font-weight="700" fill="#14532d" text-anchor="middle">Fruto</text>

  <!-- Hoja -->
  <line x1="310" y1="157" x2="370" y2="146" stroke="#555" stroke-width="1.5" stroke-dasharray="5,3"/>
  <rect x="370" y="134" width="68" height="26" fill="white" rx="6" stroke="#ddd" stroke-width="1"/>
  <text x="404" y="152" font-family="Arial, sans-serif" font-size="14" font-weight="700" fill="#14532d" text-anchor="middle">Hoja</text>

  <!-- Tallo -->
  <line x1="246" y1="215" x2="370" y2="215" stroke="#555" stroke-width="1.5" stroke-dasharray="5,3"/>
  <rect x="370" y="203" width="68" height="26" fill="white" rx="6" stroke="#ddd" stroke-width="1"/>
  <text x="404" y="221" font-family="Arial, sans-serif" font-size="14" font-weight="700" fill="#14532d" text-anchor="middle">Tallo</text>

  <!-- Raiz -->
  <line x1="242" y1="284" x2="370" y2="304" stroke="#555" stroke-width="1.5" stroke-dasharray="5,3"/>
  <rect x="370" y="292" width="66" height="26" fill="white" rx="6" stroke="#ddd" stroke-width="1"/>
  <text x="403" y="310" font-family="Arial, sans-serif" font-size="14" font-weight="700" fill="#14532d" text-anchor="middle">Raiz</text>
</svg>
